<svg width="16" height="16" viewBox="0 0 16 16" fill="none" xmlns="http://www.w3.org/2000/svg">
<g clip-path="url(#clip0_92_1825)">
<path d="M10.4263 9.82409C9.70772 10.9207 8.77906 11.8565 7.64033 12.6313C6.5016 13.4062 5.21979 13.9179 3.79491 14.1665C3.6103 14.205 3.44366 14.1755 3.29496 14.078C3.14626 13.9806 3.05269 13.8396 3.01424 13.655L2.6 11.5503C2.56476 11.3811 2.58664 11.2261 2.66565 11.0852C2.74466 10.9444 2.86253 10.8456 3.01925 10.7889L5.30563 9.97565C5.41011 9.93784 5.5117 9.92471 5.61041 9.93625C5.70912 9.9478 5.80494 9.98402 5.89788 10.0449L7.48708 11.0863C7.83002 10.8062 8.15581 10.5016 8.46446 10.1725C8.77311 9.84337 9.05532 9.48365 9.31109 9.09331C9.56686 8.70298 9.78402 8.30063 9.96255 7.88626C10.1411 7.47189 10.2903 7.05158 10.4102 6.62535L8.82099 5.58399C8.72805 5.52309 8.65659 5.4497 8.6066 5.3638C8.55661 5.27791 8.5281 5.17952 8.52105 5.06863L8.35393 2.64769C8.34336 2.48136 8.38688 2.33386 8.48447 2.20519C8.58207 2.07653 8.71548 1.99457 8.88469 1.95933L10.9797 1.49894C11.1643 1.46049 11.331 1.48999 11.4797 1.58743C11.6284 1.68486 11.7219 1.82588 11.7604 2.01048C12.1074 3.40685 12.1514 4.78405 11.8925 6.14208C11.6337 7.50011 11.1449 8.72745 10.4263 9.82409Z" fill="#00A970"/>
</g>
<defs>
<clipPath id="clip0_92_1825">
<rect width="16" height="16" fill="white"/>
</clipPath>
</defs>
</svg>
