<svg width="16" height="16" viewBox="0 0 16 16" fill="none" xmlns="http://www.w3.org/2000/svg">
<path d="M8 2H3.33333C2.97971 2 2.64057 2.14048 2.39052 2.39052C2.14048 2.64057 2 2.97971 2 3.33333V12.6667C2 13.0203 2.14048 13.3594 2.39052 13.6095C2.64057 13.8595 2.97971 14 3.33333 14H12.6667C13.0203 14 13.3594 13.8595 13.6095 13.6095C13.8595 13.3594 14 13.0203 14 12.6667V8" stroke="#1D6287" stroke-width="1.33333" stroke-linecap="round" stroke-linejoin="round"/>
<path d="M12.25 1.75003C12.5152 1.48481 12.8749 1.33582 13.25 1.33582C13.6251 1.33582 13.9848 1.48481 14.25 1.75003C14.5152 2.01525 14.6642 2.37496 14.6642 2.75003C14.6642 3.1251 14.5152 3.48481 14.25 3.75003L8.24134 9.75936C8.08304 9.91753 7.88748 10.0333 7.67267 10.096L5.75734 10.656C5.69997 10.6728 5.63917 10.6738 5.58128 10.6589C5.52339 10.6441 5.47056 10.614 5.4283 10.5717C5.38605 10.5295 5.35593 10.4766 5.3411 10.4188C5.32627 10.3609 5.32727 10.3001 5.34401 10.2427L5.90401 8.32736C5.96702 8.11273 6.08303 7.9174 6.24134 7.75936L12.25 1.75003Z" stroke="#1D6287" stroke-width="1.33333" stroke-linecap="round" stroke-linejoin="round"/>
</svg>
