<svg width="16" height="16" viewBox="0 0 16 16" fill="none" xmlns="http://www.w3.org/2000/svg">
<path d="M7.99968 1.50018C9.15339 1.50018 10.2816 1.84262 11.2409 2.48358C12.2 3.12448 12.9478 4.03509 13.3893 5.10077C13.8308 6.16665 13.9464 7.34032 13.7214 8.47186C13.4962 9.60326 12.9404 10.6425 12.1247 11.4582L9.29655 14.2873L9.29558 14.2863C9.12548 14.4565 8.92412 14.5926 8.70183 14.6848C8.47958 14.7768 8.24122 14.8244 8.00065 14.8244C7.75992 14.8244 7.52089 14.7769 7.29851 14.6848C7.07619 14.5926 6.87485 14.4566 6.70476 14.2863V14.2873L3.87468 11.4582C3.05913 10.6425 2.50407 9.60313 2.27897 8.47186C2.05392 7.34032 2.16949 6.16665 2.61101 5.10077C3.05255 4.03506 3.80028 3.12446 4.75944 2.48358C5.71863 1.84269 6.84608 1.50025 7.99968 1.50018ZM7.99968 2.50018C7.04397 2.50025 6.10979 2.78373 5.31511 3.31464C4.52036 3.84566 3.90068 4.60054 3.53483 5.48358C3.169 6.36674 3.07297 7.33898 3.25944 8.27655C3.44594 9.21405 3.9068 10.0752 4.58269 10.7512H4.58171L7.41179 13.5793V13.5803C7.48896 13.6575 7.58049 13.7191 7.68132 13.7609C7.78231 13.8028 7.89132 13.8244 8.00065 13.8244C8.10985 13.8244 8.21814 13.8027 8.31901 13.7609C8.41985 13.7191 8.51135 13.6574 8.58854 13.5803L11.4176 10.7512C12.0935 10.0752 12.5544 9.21408 12.7409 8.27655C12.9274 7.33898 12.8313 6.36674 12.4655 5.48358C12.0997 4.60049 11.48 3.84568 10.6852 3.31464C9.8904 2.78358 8.95559 2.50018 7.99968 2.50018Z" fill="#5F5F5F"/>
<path d="M9.5 7.33331C9.5 6.93549 9.34185 6.55407 9.06055 6.27277C8.77924 5.99146 8.39783 5.83331 8 5.83331C7.60217 5.83331 7.22076 5.99146 6.93945 6.27277C6.65815 6.55407 6.5 6.93549 6.5 7.33331C6.5 7.73114 6.65815 8.11256 6.93945 8.39386C7.22076 8.67516 7.60217 8.83331 8 8.83331C8.39783 8.83331 8.77924 8.67516 9.06055 8.39386C9.34185 8.11256 9.5 7.73114 9.5 7.33331ZM10.5 7.33331C10.5 7.99635 10.2364 8.63205 9.76758 9.10089C9.29874 9.56973 8.66304 9.83331 8 9.83331C7.33696 9.83331 6.70126 9.56973 6.23242 9.10089C5.76358 8.63205 5.5 7.99635 5.5 7.33331C5.5 6.67027 5.76358 6.03458 6.23242 5.56573C6.70126 5.09689 7.33696 4.83331 8 4.83331C8.66304 4.83331 9.29874 5.09689 9.76758 5.56573C10.2364 6.03458 10.5 6.67027 10.5 7.33331Z" fill="#5F5F5F"/>
</svg>
