<svg width="16" height="16" viewBox="0 0 16 16" fill="none" xmlns="http://www.w3.org/2000/svg">
<path d="M14.4602 7.10119C14.6061 7.17162 14.7325 7.27617 14.8285 7.40594L14.8685 7.46441L14.9045 7.52518C14.9717 7.64973 15.0114 7.78725 15.0214 7.92845L15.0241 7.99934L15.0218 8.06978C15.0118 8.21084 14.9716 8.34813 14.9045 8.47259L14.8685 8.53428L14.8285 8.59274C14.7327 8.72214 14.6062 8.82575 14.4607 8.89612L2.43985 14.7896C2.25666 14.8792 2.04986 14.9112 1.8483 14.8803C1.64662 14.8493 1.45899 14.757 1.31106 14.6165C1.16324 14.476 1.06186 14.2937 1.02058 14.094C0.979321 13.8942 1.00025 13.6859 1.08042 13.4983L3.32005 8.26082L3.34353 8.19776C3.36348 8.13364 3.37349 8.06675 3.37346 7.99934C3.37337 7.90935 3.35501 7.82013 3.31959 7.7374L1.08042 2.49947C1.0003 2.31194 0.979408 2.10441 1.02058 1.90469C1.06183 1.70486 1.16359 1.52226 1.31152 1.38173C1.45943 1.24124 1.64666 1.14937 1.8483 1.1184L1.92379 1.1092C2.10095 1.09566 2.27898 1.13014 2.43939 1.20863L14.4602 7.10119ZM4.59294 8.66456C4.57883 8.70456 4.56357 8.7442 4.5469 8.78333L4.54644 8.78471L2.65944 13.1963L11.9029 8.66502L4.59294 8.66456ZM2.65944 2.80054L4.54506 7.21167C4.56188 7.25096 4.57732 7.29166 4.59156 7.33183L11.9039 7.33183L2.65944 2.80054Z" fill="white"/>
</svg>
