<svg width="16" height="16" viewBox="0 0 16 16" fill="none" xmlns="http://www.w3.org/2000/svg">
<path d="M6.16667 14.6667L5.9 12.5333C5.75556 12.4778 5.61945 12.4111 5.49167 12.3333C5.36389 12.2556 5.23889 12.1722 5.11667 12.0833L3.13334 12.9167L1.3 9.75001L3.01667 8.45001C3.00556 8.37223 3 8.29723 3 8.22501V7.77501C3 7.70279 3.00556 7.62779 3.01667 7.55001L1.3 6.25001L3.13334 3.08334L5.11667 3.91668C5.23889 3.82779 5.36667 3.74445 5.5 3.66668C5.63334 3.5889 5.76667 3.52223 5.9 3.46668L6.16667 1.33334H9.83334L10.1 3.46668C10.2444 3.52223 10.3806 3.5889 10.5083 3.66668C10.6361 3.74445 10.7611 3.82779 10.8833 3.91668L12.8667 3.08334L14.7 6.25001L12.9833 7.55001C12.9944 7.62779 13 7.70279 13 7.77501V8.22501C13 8.29723 12.9889 8.37223 12.9667 8.45001L14.6833 9.75001L12.85 12.9167L10.8833 12.0833C10.7611 12.1722 10.6333 12.2556 10.5 12.3333C10.3667 12.4111 10.2333 12.4778 10.1 12.5333L9.83334 14.6667H6.16667ZM8.03334 10.3333C8.67778 10.3333 9.22778 10.1056 9.68334 9.65001C10.1389 9.19445 10.3667 8.64445 10.3667 8.00001C10.3667 7.35557 10.1389 6.80557 9.68334 6.35001C9.22778 5.89445 8.67778 5.66668 8.03334 5.66668C7.37778 5.66668 6.825 5.89445 6.375 6.35001C5.925 6.80557 5.7 7.35557 5.7 8.00001C5.7 8.64445 5.925 9.19445 6.375 9.65001C6.825 10.1056 7.37778 10.3333 8.03334 10.3333Z" fill="#5F5F5F"/>
</svg>
