<svg width="16" height="16" viewBox="0 0 16 16" fill="none" xmlns="http://www.w3.org/2000/svg">
<g clip-path="url(#clip0_92_873)">
<path d="M3.08 12.08C3.76 11.56 4.52 11.15 5.36 10.85C6.2 10.55 7.08 10.4 8 10.4C8.92 10.4 9.8 10.55 10.64 10.85C11.48 11.15 12.24 11.56 12.92 12.08C13.3867 11.5333 13.75 10.9133 14.01 10.22C14.27 9.52667 14.4 8.78667 14.4 8C14.4 6.22667 13.7767 4.71667 12.53 3.47C11.2833 2.22333 9.77333 1.6 8 1.6C6.22667 1.6 4.71667 2.22333 3.47 3.47C2.22333 4.71667 1.6 6.22667 1.6 8C1.6 8.78667 1.73 9.52667 1.99 10.22C2.25 10.9133 2.61333 11.5333 3.08 12.08ZM8 8.8C7.21333 8.8 6.55 8.53 6.01 7.99C5.47 7.45 5.2 6.78667 5.2 6C5.2 5.21333 5.47 4.55 6.01 4.01C6.55 3.47 7.21333 3.2 8 3.2C8.78667 3.2 9.45 3.47 9.99 4.01C10.53 4.55 10.8 5.21333 10.8 6C10.8 6.78667 10.53 7.45 9.99 7.99C9.45 8.53 8.78667 8.8 8 8.8ZM8 16C6.89333 16 5.85333 15.79 4.88 15.37C3.90667 14.95 3.06 14.38 2.34 13.66C1.62 12.94 1.05 12.0933 0.63 11.12C0.21 10.1467 0 9.10667 0 8C0 6.89333 0.21 5.85333 0.63 4.88C1.05 3.90667 1.62 3.06 2.34 2.34C3.06 1.62 3.90667 1.05 4.88 0.63C5.85333 0.21 6.89333 0 8 0C9.10667 0 10.1467 0.21 11.12 0.63C12.0933 1.05 12.94 1.62 13.66 2.34C14.38 3.06 14.95 3.90667 15.37 4.88C15.79 5.85333 16 6.89333 16 8C16 9.10667 15.79 10.1467 15.37 11.12C14.95 12.0933 14.38 12.94 13.66 13.66C12.94 14.38 12.0933 14.95 11.12 15.37C10.1467 15.79 9.10667 16 8 16Z" fill="white"/>
</g>
<defs>
<clipPath id="clip0_92_873">
<rect width="16" height="16" fill="white"/>
</clipPath>
</defs>
</svg>
